<svg xmlns="http://www.w3.org/2000/svg" version="1.1" xmlns:xlink="http://www.w3.org/1999/xlink" xmlns:svgjs="http://svgjs.dev/svgjs" width="1440" height="560" preserveAspectRatio="none" viewBox="0 0 1440 560">
    <g mask="url(&quot;#SvgjsMask1022&quot;)" fill="none">
        <path d="M7.55 227.98L73.37 265.98L73.37 341.98L7.55 379.98L-58.27 341.98L-58.27 265.98zM73.37 569.98L139.19 607.98L139.19 683.98L73.37 721.98L7.55 683.98L7.55 607.98zM139.19 455.98L205.01 493.98L205.01 569.98L139.19 607.98L73.37 569.98L73.37 493.98zM665.75 -0.02L731.57 37.98L731.57 113.98L665.75 151.98L599.93 113.98L599.93 37.98zM731.57 113.98L797.39 151.98L797.39 227.98L731.57 265.98L665.75 227.98L665.75 151.98zM863.21 113.98L929.03 151.98L929.03 227.98L863.21 265.98L797.39 227.98L797.39 151.98z" stroke="rgba(185, 255, 102, 0.04)" stroke-width="2"></path>
        <path d="M132.66 322.89L198.48 360.89L198.48 436.89L132.66 474.89L66.84 436.89L66.84 360.89zM66.84 436.89L132.66 474.89L132.66 550.89L66.84 588.89L1.02 550.89L1.02 474.89zM264.3 322.89L330.12 360.89L330.12 436.89L264.3 474.89L198.48 436.89L198.48 360.89zM330.12 208.89L395.94 246.89L395.94 322.89L330.12 360.89L264.3 322.89L264.3 246.89zM527.58 94.89L593.4 132.89L593.4 208.89L527.58 246.89L461.76 208.89L461.76 132.89zM593.4 -19.11L659.22 18.89L659.22 94.89L593.4 132.89L527.58 94.89L527.58 18.89zM593.4 208.89L659.22 246.89L659.22 322.89L593.4 360.89L527.58 322.89L527.58 246.89zM725.04 208.89L790.86 246.89L790.86 322.89L725.04 360.89L659.22 322.89L659.22 246.89zM790.86 550.89L856.68 588.89L856.68 664.89L790.86 702.89L725.04 664.89L725.04 588.89zM922.5 94.89L988.32 132.89L988.32 208.89L922.5 246.89L856.68 208.89L856.68 132.89zM922.5 322.89L988.32 360.89L988.32 436.89L922.5 474.89L856.68 436.89L856.68 360.89zM856.68 436.89L922.5 474.89L922.5 550.89L856.68 588.89L790.86 550.89L790.86 474.89zM988.32 208.89L1054.14 246.89L1054.14 322.89L988.32 360.89L922.5 322.89L922.5 246.89zM1054.14 322.89L1119.96 360.89L1119.96 436.89L1054.14 474.89L988.32 436.89L988.32 360.89zM988.32 436.89L1054.14 474.89L1054.14 550.89L988.32 588.89L922.5 550.89L922.5 474.89zM1054.14 550.89L1119.96 588.89L1119.96 664.89L1054.14 702.89L988.32 664.89L988.32 588.89zM1185.78 322.89L1251.6 360.89L1251.6 436.89L1185.78 474.89L1119.96 436.89L1119.96 360.89zM1185.78 550.89L1251.6 588.89L1251.6 664.89L1185.78 702.89L1119.96 664.89L1119.96 588.89zM1251.6 208.89L1317.42 246.89L1317.42 322.89L1251.6 360.89L1185.78 322.89L1185.78 246.89z" stroke="url(&quot;#SvgjsRadialGradient1023&quot;)" stroke-width="2"></path>
    </g>
    <defs>
        <mask id="SvgjsMask1022">
            <rect width="1440" height="560" fill="#ffffff"></rect>
        </mask>
        <radialGradient cx="720" cy="280" r="772.53" gradientUnits="userSpaceOnUse" id="SvgjsRadialGradient1023">
            <stop stop-color="rgba(185, 255, 102, 0.35)" offset="0"></stop>
            <stop stop-color="rgba(185, 255, 102, 0.02)" offset="1"></stop>
        </radialGradient>
    </defs>
</svg>